<svg xmlns="http://www.w3.org/2000/svg" xmlns:xlink="http://www.w3.org/1999/xlink" width="150" zoomAndPan="magnify" viewBox="0 0 112.5 37.5" height="50" preserveAspectRatio="xMidYMid meet" version="1.0"><defs><filter x="0%" y="0%" width="100%" height="100%" id="e6312f01b6"><feColorMatrix values="0 0 0 0 1 0 0 0 0 1 0 0 0 0 1 0 0 0 1 0" color-interpolation-filters="sRGB"/></filter><g/><clipPath id="d862df31ae"><path d="M 22 0 L 90 0 L 90 37.007812 L 22 37.007812 Z M 22 0 " clip-rule="nonzero"/></clipPath><mask id="b5e59290be"><g filter="url(#e6312f01b6)"><rect x="-11.25" width="135" fill="#000000" y="-3.75" height="45" fill-opacity="0.4784"/></g></mask><clipPath id="ada3e8a9bf"><rect x="0" width="68" y="0" height="38"/></clipPath></defs><g clip-path="url(#d862df31ae)"><g mask="url(#b5e59290be)"><g transform="matrix(1, 0, 0, 1, 22, -0.000000000000001478)"><g clip-path="url(#ada3e8a9bf)"><g fill="#545454" fill-opacity="1"><g transform="translate(1.272305, 34.198401)"><g><path d="M 1.09375 0 L 1.09375 -0.5 L 2.125 -0.890625 C 2.820312 -1.148438 3.257812 -1.46875 3.4375 -1.84375 C 3.625 -2.226562 3.71875 -2.753906 3.71875 -3.421875 L 3.71875 -29.296875 C 3.71875 -29.953125 3.617188 -30.476562 3.421875 -30.875 C 3.222656 -31.269531 2.789062 -31.582031 2.125 -31.8125 L 1.09375 -32.21875 L 1.09375 -32.71875 L 13.734375 -32.71875 L 13.734375 -32.21875 L 12.84375 -31.8125 C 12.207031 -31.582031 11.773438 -31.257812 11.546875 -30.84375 C 11.316406 -30.4375 11.203125 -29.898438 11.203125 -29.234375 L 11.203125 -0.984375 L 18.828125 -0.984375 C 20.054688 -0.984375 20.957031 -1.28125 21.53125 -1.875 C 22.113281 -2.476562 22.664062 -3.335938 23.1875 -4.453125 L 25.125 -8.625 L 25.625 -8.625 L 25.171875 0 Z M 1.09375 0 "/></g></g></g><g fill="#545454" fill-opacity="1"><g transform="translate(28.031321, 34.198401)"><g><path d="M 0.984375 0 L 0.984375 -0.5 L 1.984375 -0.84375 C 3.109375 -1.207031 3.671875 -2.148438 3.671875 -3.671875 L 3.671875 -29.046875 C 3.671875 -29.703125 3.59375 -30.226562 3.4375 -30.625 C 3.289062 -31.019531 2.90625 -31.351562 2.28125 -31.625 L 0.984375 -32.21875 L 0.984375 -32.71875 L 10.5625 -32.71875 L 19.71875 -8.71875 L 28.34375 -32.71875 L 38.109375 -32.71875 L 38.109375 -32.21875 L 37.328125 -31.921875 C 36.691406 -31.691406 36.257812 -31.367188 36.03125 -30.953125 C 35.800781 -30.535156 35.6875 -30 35.6875 -29.34375 L 35.6875 -3.421875 C 35.6875 -2.753906 35.769531 -2.238281 35.9375 -1.875 C 36.101562 -1.519531 36.5 -1.207031 37.125 -0.9375 L 38.109375 -0.5 L 38.109375 0 L 25.765625 0 L 25.765625 -0.5 L 26.8125 -0.9375 C 27.4375 -1.207031 27.832031 -1.519531 28 -1.875 C 28.164062 -2.238281 28.25 -2.753906 28.25 -3.421875 L 28.25 -14.578125 L 28.34375 -28.75 L 17.984375 0 L 15.515625 0 L 4.703125 -28.40625 L 4.859375 -16.0625 L 4.859375 -3.5625 C 4.859375 -2.84375 4.960938 -2.257812 5.171875 -1.8125 C 5.390625 -1.363281 5.8125 -1.039062 6.4375 -0.84375 L 7.53125 -0.5 L 7.53125 0 Z M 0.984375 0 "/></g></g></g></g></g></g></g><g fill="#000000" fill-opacity="1"><g transform="translate(3.523767, 22.675375)"><g><path d="M 2.34375 -2.09375 L 1.953125 -2.109375 C 1.554688 -2.117188 1.125 -2.148438 0.65625 -2.203125 C 0.644531 -2.203125 0.640625 -2.207031 0.640625 -2.21875 C 0.628906 -2.21875 0.617188 -2.222656 0.609375 -2.234375 C 0.597656 -2.253906 0.597656 -2.28125 0.609375 -2.3125 C 0.640625 -2.457031 0.691406 -2.535156 0.765625 -2.546875 C 1.140625 -2.597656 1.507812 -2.625 1.875 -2.625 L 2.109375 -2.640625 L 3.59375 -2.640625 C 3.675781 -2.640625 3.753906 -2.632812 3.828125 -2.625 C 3.890625 -2.601562 3.898438 -2.519531 3.859375 -2.375 C 3.816406 -2.226562 3.765625 -2.144531 3.703125 -2.125 C 3.671875 -2.125 3.640625 -2.125 3.609375 -2.125 L 3.375 -2.125 C 3.050781 -2.101562 2.707031 -2.09375 2.34375 -2.09375 Z M 2.34375 -2.09375 "/></g></g></g><g fill="#000000" fill-opacity="1"><g transform="translate(9.318063, 22.675375)"><g/></g></g><g fill="#000000" fill-opacity="1"><g transform="translate(14.451089, 22.675375)"><g><path d="M 13.546875 -14.375 C 13.316406 -13.75 13.066406 -13.140625 12.796875 -12.546875 C 10.046875 -6.304688 7.679688 -0.953125 5.703125 3.515625 C 5.242188 3.597656 5.148438 3.328125 5.421875 2.703125 C 5.941406 1.335938 6.84375 -0.828125 8.125 -3.796875 C 9.40625 -6.765625 10.710938 -9.726562 12.046875 -12.6875 C 12.316406 -13.28125 12.566406 -13.882812 12.796875 -14.5 C 12.796875 -14.53125 12.804688 -14.5625 12.828125 -14.59375 C 12.878906 -14.707031 12.921875 -14.828125 12.953125 -14.953125 C 12.984375 -15.085938 12.988281 -15.234375 12.96875 -15.390625 C 12.757812 -15.359375 12.570312 -15.300781 12.40625 -15.21875 C 12.351562 -15.195312 12.3125 -15.179688 12.28125 -15.171875 C 10.707031 -14.515625 9.066406 -13.660156 7.359375 -12.609375 C 5.648438 -11.566406 4.160156 -10.472656 2.890625 -9.328125 C 2.617188 -9.085938 2.351562 -8.832031 2.09375 -8.5625 C 1.84375 -8.289062 1.609375 -8.003906 1.390625 -7.703125 C 1.140625 -7.367188 0.957031 -7.003906 0.84375 -6.609375 C 0.625 -5.878906 0.84375 -5.320312 1.5 -4.9375 C 1.957031 -4.675781 2.414062 -4.5 2.875 -4.40625 C 3.332031 -4.320312 3.757812 -4.28125 4.15625 -4.28125 C 4.5625 -4.289062 4.914062 -4.3125 5.21875 -4.34375 C 5.34375 -4.351562 5.445312 -4.363281 5.53125 -4.375 C 5.59375 -4.382812 5.648438 -4.378906 5.703125 -4.359375 C 5.765625 -4.347656 5.820312 -4.316406 5.875 -4.265625 C 5.9375 -4.171875 5.835938 -4.09375 5.578125 -4.03125 C 5.328125 -3.976562 4.976562 -3.953125 4.53125 -3.953125 C 4.09375 -3.953125 3.628906 -3.984375 3.140625 -4.046875 C 2.253906 -4.160156 1.570312 -4.347656 1.09375 -4.609375 C 0.789062 -4.753906 0.539062 -4.957031 0.34375 -5.21875 C 0.113281 -5.539062 0.0234375 -5.890625 0.078125 -6.265625 C 0.128906 -6.671875 0.253906 -7.039062 0.453125 -7.375 C 0.785156 -7.925781 1.175781 -8.425781 1.625 -8.875 C 2.414062 -9.6875 3.332031 -10.472656 4.375 -11.234375 C 5.425781 -11.992188 6.515625 -12.695312 7.640625 -13.34375 C 8.765625 -14 9.835938 -14.566406 10.859375 -15.046875 C 11.328125 -15.265625 11.800781 -15.460938 12.28125 -15.640625 C 12.507812 -15.734375 12.75 -15.796875 13 -15.828125 C 13.070312 -15.835938 13.132812 -15.835938 13.1875 -15.828125 C 13.644531 -15.859375 13.835938 -15.628906 13.765625 -15.140625 C 13.710938 -14.878906 13.640625 -14.625 13.546875 -14.375 Z M 13.546875 -14.375 "/></g></g></g><g fill="#000000" fill-opacity="1"><g transform="translate(25.92646, 22.675375)"><g><path d="M 3.828125 -2.40625 C 3.878906 -2.34375 3.8125 -2.222656 3.625 -2.046875 C 3.445312 -1.878906 3.253906 -1.738281 3.046875 -1.625 C 2.847656 -1.507812 2.617188 -1.394531 2.359375 -1.28125 C 2.179688 -1.195312 1.988281 -1.164062 1.78125 -1.1875 C 1.582031 -1.21875 1.484375 -1.34375 1.484375 -1.5625 C 1.484375 -1.78125 1.535156 -1.992188 1.640625 -2.203125 C 1.734375 -2.421875 1.753906 -2.535156 1.703125 -2.546875 C 1.648438 -2.554688 1.535156 -2.503906 1.359375 -2.390625 C 0.890625 -2.085938 0.457031 -1.738281 0.0625 -1.34375 C -0.0390625 -1.21875 -0.175781 -1.148438 -0.34375 -1.140625 C -0.425781 -1.140625 -0.488281 -1.164062 -0.53125 -1.21875 C -0.582031 -1.269531 -0.585938 -1.328125 -0.546875 -1.390625 C -0.265625 -1.910156 0.0195312 -2.425781 0.3125 -2.9375 C 0.375 -3.039062 0.46875 -3.109375 0.59375 -3.140625 C 0.65625 -3.148438 0.707031 -3.128906 0.75 -3.078125 C 0.800781 -3.035156 0.828125 -2.988281 0.828125 -2.9375 C 0.816406 -2.882812 0.796875 -2.820312 0.765625 -2.75 C 0.742188 -2.707031 0.722656 -2.664062 0.703125 -2.625 C 0.691406 -2.59375 0.6875 -2.5625 0.6875 -2.53125 C 0.695312 -2.507812 0.722656 -2.503906 0.765625 -2.515625 C 0.804688 -2.546875 0.851562 -2.570312 0.90625 -2.59375 C 1.03125 -2.664062 1.144531 -2.734375 1.25 -2.796875 C 1.351562 -2.859375 1.457031 -2.910156 1.5625 -2.953125 C 1.675781 -2.992188 1.789062 -3.023438 1.90625 -3.046875 C 2.101562 -3.054688 2.238281 -3.007812 2.3125 -2.90625 C 2.394531 -2.8125 2.410156 -2.675781 2.359375 -2.5 C 2.285156 -2.34375 2.21875 -2.1875 2.15625 -2.03125 C 2.0625 -1.875 2.039062 -1.753906 2.09375 -1.671875 C 2.15625 -1.597656 2.425781 -1.691406 2.90625 -1.953125 L 3.28125 -2.15625 C 3.613281 -2.375 3.796875 -2.457031 3.828125 -2.40625 Z M 3.828125 -2.40625 "/></g></g></g><g fill="#000000" fill-opacity="1"><g transform="translate(30.948476, 22.675375)"><g><path d="M 0.65625 -2.171875 C 0.53125 -1.847656 0.394531 -1.53125 0.25 -1.21875 C 0.03125 -0.707031 -0.21875 -0.210938 -0.5 0.265625 C -0.695312 0.609375 -0.9375 0.847656 -1.21875 0.984375 C -1.507812 1.128906 -1.832031 1.195312 -2.1875 1.1875 C -2.488281 1.1875 -2.742188 1.078125 -2.953125 0.859375 C -2.984375 0.835938 -3.003906 0.804688 -3.015625 0.765625 C -3.023438 0.734375 -3.019531 0.695312 -3 0.65625 C -2.96875 0.625 -2.929688 0.601562 -2.890625 0.59375 C -2.847656 0.59375 -2.804688 0.601562 -2.765625 0.625 C -2.722656 0.632812 -2.675781 0.65625 -2.625 0.6875 C -2.582031 0.707031 -2.546875 0.722656 -2.515625 0.734375 C -2.265625 0.835938 -2.023438 0.851562 -1.796875 0.78125 C -1.566406 0.71875 -1.367188 0.5625 -1.203125 0.3125 C -1.035156 0.0625 -0.882812 -0.191406 -0.75 -0.453125 C -0.75 -0.460938 -0.742188 -0.472656 -0.734375 -0.484375 C -0.453125 -1.035156 -0.203125 -1.597656 0.015625 -2.171875 C 0.046875 -2.265625 0.046875 -2.328125 0.015625 -2.359375 C -0.00390625 -2.398438 -0.0625 -2.429688 -0.15625 -2.453125 C -0.195312 -2.460938 -0.238281 -2.46875 -0.28125 -2.46875 C -0.3125 -2.46875 -0.34375 -2.46875 -0.375 -2.46875 C -0.414062 -2.476562 -0.453125 -2.492188 -0.484375 -2.515625 C -0.515625 -2.535156 -0.523438 -2.570312 -0.515625 -2.625 C -0.503906 -2.664062 -0.476562 -2.695312 -0.4375 -2.71875 C -0.40625 -2.738281 -0.367188 -2.75 -0.328125 -2.75 C -0.316406 -2.75 -0.304688 -2.75 -0.296875 -2.75 C -0.191406 -2.78125 -0.0859375 -2.796875 0.015625 -2.796875 C 0.117188 -2.796875 0.191406 -2.820312 0.234375 -2.875 C 0.285156 -2.925781 0.332031 -3 0.375 -3.09375 C 0.570312 -3.644531 0.78125 -4.195312 1 -4.75 C 1.226562 -5.351562 1.503906 -5.945312 1.828125 -6.53125 C 1.960938 -6.789062 2.132812 -7.023438 2.34375 -7.234375 C 2.457031 -7.328125 2.578125 -7.398438 2.703125 -7.453125 C 2.835938 -7.515625 2.976562 -7.535156 3.125 -7.515625 C 3.15625 -7.515625 3.179688 -7.503906 3.203125 -7.484375 C 3.222656 -7.472656 3.242188 -7.457031 3.265625 -7.4375 C 3.285156 -7.382812 3.28125 -7.34375 3.25 -7.3125 C 3.21875 -7.289062 3.179688 -7.273438 3.140625 -7.265625 C 2.972656 -7.191406 2.835938 -7.09375 2.734375 -6.96875 C 2.628906 -6.84375 2.539062 -6.707031 2.46875 -6.5625 C 2.144531 -5.96875 1.859375 -5.363281 1.609375 -4.75 C 1.367188 -4.132812 1.144531 -3.515625 0.9375 -2.890625 C 1.082031 -2.804688 1.226562 -2.765625 1.375 -2.765625 C 1.4375 -2.753906 1.503906 -2.742188 1.578125 -2.734375 C 1.585938 -2.734375 1.601562 -2.734375 1.625 -2.734375 C 1.664062 -2.722656 1.703125 -2.707031 1.734375 -2.6875 C 1.742188 -2.6875 1.753906 -2.675781 1.765625 -2.65625 C 1.785156 -2.644531 1.789062 -2.632812 1.78125 -2.625 C 1.78125 -2.601562 1.773438 -2.582031 1.765625 -2.5625 C 1.753906 -2.539062 1.738281 -2.53125 1.71875 -2.53125 C 1.550781 -2.476562 1.382812 -2.457031 1.21875 -2.46875 C 1.175781 -2.46875 1.128906 -2.46875 1.078125 -2.46875 C 0.867188 -2.46875 0.726562 -2.367188 0.65625 -2.171875 Z M 0.65625 -2.171875 "/></g></g></g><g fill="#000000" fill-opacity="1"><g transform="translate(34.300439, 22.675375)"><g><path d="M 0.765625 -1.140625 L 0.75 -1.140625 C 0.28125 -1.148438 -0.0234375 -1.253906 -0.171875 -1.453125 C -0.316406 -1.660156 -0.3125 -1.929688 -0.15625 -2.265625 C -0.0195312 -2.515625 0.148438 -2.734375 0.359375 -2.921875 C 0.429688 -2.984375 0.503906 -3.035156 0.578125 -3.078125 C 0.648438 -3.117188 0.734375 -3.140625 0.828125 -3.140625 C 0.878906 -3.148438 0.941406 -3.140625 1.015625 -3.109375 C 1.035156 -3.097656 1.0625 -3.09375 1.09375 -3.09375 C 1.144531 -3.09375 1.195312 -3.109375 1.25 -3.140625 C 1.257812 -3.148438 1.273438 -3.15625 1.296875 -3.15625 C 1.398438 -3.195312 1.515625 -3.21875 1.640625 -3.21875 C 1.679688 -3.21875 1.726562 -3.21875 1.78125 -3.21875 C 1.976562 -3.1875 2.125 -3.101562 2.21875 -2.96875 C 2.3125 -2.84375 2.34375 -2.6875 2.3125 -2.5 C 2.300781 -2.382812 2.269531 -2.28125 2.21875 -2.1875 C 1.84375 -1.519531 1.367188 -1.171875 0.796875 -1.140625 Z M 1.53125 -2.875 C 1.28125 -2.882812 1.054688 -2.8125 0.859375 -2.65625 C 0.660156 -2.5 0.507812 -2.316406 0.40625 -2.109375 C 0.3125 -1.910156 0.285156 -1.742188 0.328125 -1.609375 C 0.367188 -1.484375 0.503906 -1.445312 0.734375 -1.5 C 0.984375 -1.582031 1.207031 -1.726562 1.40625 -1.9375 C 1.601562 -2.15625 1.722656 -2.359375 1.765625 -2.546875 C 1.804688 -2.734375 1.726562 -2.84375 1.53125 -2.875 Z M 1.53125 -2.875 "/></g></g></g><g fill="#000000" fill-opacity="1"><g transform="translate(38.347453, 22.675375)"><g><path d="M 2.3125 -2.953125 C 2.289062 -2.734375 2.1875 -2.585938 2 -2.515625 C 1.820312 -2.453125 1.765625 -2.539062 1.828125 -2.78125 C 1.890625 -3.03125 1.78125 -3.09375 1.5 -2.96875 C 1.21875 -2.851562 0.984375 -2.707031 0.796875 -2.53125 C 0.515625 -2.238281 0.265625 -1.925781 0.046875 -1.59375 C 0.0234375 -1.5625 0.00390625 -1.535156 -0.015625 -1.515625 C -0.078125 -1.421875 -0.140625 -1.332031 -0.203125 -1.25 C -0.242188 -1.1875 -0.289062 -1.148438 -0.34375 -1.140625 C -0.40625 -1.128906 -0.460938 -1.128906 -0.515625 -1.140625 C -0.578125 -1.140625 -0.617188 -1.15625 -0.640625 -1.1875 C -0.671875 -1.226562 -0.675781 -1.273438 -0.65625 -1.328125 C -0.625 -1.410156 -0.582031 -1.5 -0.53125 -1.59375 C -0.238281 -2.125 0.0546875 -2.660156 0.359375 -3.203125 C 0.359375 -3.210938 0.359375 -3.21875 0.359375 -3.21875 C 0.398438 -3.3125 0.453125 -3.390625 0.515625 -3.453125 C 0.578125 -3.523438 0.648438 -3.554688 0.734375 -3.546875 C 0.816406 -3.535156 0.875 -3.484375 0.90625 -3.390625 C 0.9375 -3.273438 0.960938 -3.210938 0.984375 -3.203125 C 1.015625 -3.191406 1.078125 -3.203125 1.171875 -3.234375 C 1.359375 -3.304688 1.546875 -3.351562 1.734375 -3.375 C 1.921875 -3.40625 2.070312 -3.398438 2.1875 -3.359375 C 2.300781 -3.316406 2.34375 -3.179688 2.3125 -2.953125 Z M 2.3125 -2.953125 "/></g></g></g><g fill="#000000" fill-opacity="1"><g transform="translate(42.244832, 22.675375)"><g><path d="M 5.046875 -2.421875 C 5.160156 -2.492188 5.25 -2.507812 5.3125 -2.46875 C 5.375 -2.4375 5.347656 -2.335938 5.234375 -2.171875 C 5.097656 -1.984375 4.847656 -1.78125 4.484375 -1.5625 C 4.117188 -1.34375 3.796875 -1.25 3.515625 -1.28125 C 3.234375 -1.3125 3.148438 -1.519531 3.265625 -1.90625 C 3.378906 -2.289062 3.441406 -2.503906 3.453125 -2.546875 C 3.460938 -2.597656 3.453125 -2.625 3.421875 -2.625 C 3.398438 -2.632812 3.335938 -2.601562 3.234375 -2.53125 C 2.953125 -2.332031 2.671875 -2.125 2.390625 -1.90625 C 2.273438 -1.8125 2.15625 -1.71875 2.03125 -1.625 C 1.96875 -1.5625 1.894531 -1.492188 1.8125 -1.421875 C 1.726562 -1.335938 1.625 -1.28125 1.5 -1.25 C 1.445312 -1.238281 1.390625 -1.234375 1.328125 -1.234375 C 1.265625 -1.234375 1.210938 -1.253906 1.171875 -1.296875 C 1.117188 -1.347656 1.097656 -1.398438 1.109375 -1.453125 C 1.128906 -1.503906 1.171875 -1.582031 1.234375 -1.6875 C 1.304688 -1.800781 1.378906 -1.921875 1.453125 -2.046875 C 1.535156 -2.171875 1.582031 -2.25 1.59375 -2.28125 C 1.601562 -2.3125 1.597656 -2.335938 1.578125 -2.359375 C 1.554688 -2.390625 1.53125 -2.398438 1.5 -2.390625 C 1.476562 -2.378906 1.378906 -2.3125 1.203125 -2.1875 C 1.023438 -2.0625 0.785156 -1.882812 0.484375 -1.65625 C 0.335938 -1.550781 0.195312 -1.441406 0.0625 -1.328125 C 0.03125 -1.285156 -0.00390625 -1.253906 -0.046875 -1.234375 C -0.148438 -1.140625 -0.257812 -1.09375 -0.375 -1.09375 C -0.46875 -1.082031 -0.535156 -1.097656 -0.578125 -1.140625 C -0.617188 -1.191406 -0.625 -1.253906 -0.59375 -1.328125 C -0.570312 -1.390625 -0.546875 -1.445312 -0.515625 -1.5 C -0.503906 -1.519531 -0.492188 -1.539062 -0.484375 -1.5625 C -0.234375 -2.070312 0.015625 -2.585938 0.265625 -3.109375 C 0.273438 -3.117188 0.28125 -3.132812 0.28125 -3.15625 C 0.3125 -3.21875 0.34375 -3.273438 0.375 -3.328125 C 0.445312 -3.410156 0.535156 -3.4375 0.640625 -3.40625 C 0.765625 -3.375 0.8125 -3.300781 0.78125 -3.1875 C 0.726562 -3.03125 0.675781 -2.875 0.625 -2.71875 C 0.59375 -2.644531 0.5625 -2.570312 0.53125 -2.5 C 0.476562 -2.375 0.460938 -2.289062 0.484375 -2.25 C 0.503906 -2.21875 0.582031 -2.242188 0.71875 -2.328125 C 0.820312 -2.390625 0.921875 -2.457031 1.015625 -2.53125 C 1.117188 -2.601562 1.226562 -2.671875 1.34375 -2.734375 C 1.5 -2.835938 1.664062 -2.925781 1.84375 -3 C 1.925781 -3.03125 2.007812 -3.050781 2.09375 -3.0625 C 2.1875 -3.082031 2.269531 -3.066406 2.34375 -3.015625 C 2.40625 -2.960938 2.429688 -2.90625 2.421875 -2.84375 C 2.410156 -2.78125 2.394531 -2.722656 2.375 -2.671875 C 2.320312 -2.566406 2.300781 -2.5 2.3125 -2.46875 C 2.320312 -2.4375 2.347656 -2.429688 2.390625 -2.453125 C 2.429688 -2.472656 2.503906 -2.515625 2.609375 -2.578125 C 2.710938 -2.640625 2.828125 -2.710938 2.953125 -2.796875 C 3.109375 -2.890625 3.269531 -2.984375 3.4375 -3.078125 C 3.582031 -3.171875 3.734375 -3.226562 3.890625 -3.25 C 4.117188 -3.257812 4.210938 -3.164062 4.171875 -2.96875 C 4.128906 -2.78125 4.050781 -2.550781 3.9375 -2.28125 C 3.820312 -2.007812 3.804688 -1.84375 3.890625 -1.78125 C 3.984375 -1.71875 4.1875 -1.800781 4.5 -2.03125 C 4.820312 -2.257812 5.003906 -2.390625 5.046875 -2.421875 Z M 5.046875 -2.421875 "/></g></g></g><g fill="#000000" fill-opacity="1"><g transform="translate(48.835535, 22.675375)"><g><path d="M 3.5 -2.453125 C 3.582031 -2.410156 3.585938 -2.304688 3.515625 -2.140625 C 3.421875 -2.015625 3.320312 -1.898438 3.21875 -1.796875 C 3.113281 -1.691406 3 -1.597656 2.875 -1.515625 C 2.863281 -1.515625 2.859375 -1.507812 2.859375 -1.5 C 2.773438 -1.445312 2.6875 -1.398438 2.59375 -1.359375 C 1.820312 -1.078125 1.429688 -1.238281 1.421875 -1.84375 C 1.109375 -1.570312 0.894531 -1.40625 0.78125 -1.34375 C 0.53125 -1.195312 0.257812 -1.128906 -0.03125 -1.140625 C -0.25 -1.148438 -0.398438 -1.21875 -0.484375 -1.34375 C -0.566406 -1.46875 -0.5625 -1.628906 -0.46875 -1.828125 C -0.320312 -2.160156 -0.117188 -2.453125 0.140625 -2.703125 C 0.441406 -2.984375 0.78125 -3.210938 1.15625 -3.390625 C 1.351562 -3.484375 1.5625 -3.519531 1.78125 -3.5 C 2 -3.488281 2.132812 -3.363281 2.1875 -3.125 C 2.207031 -3.050781 2.1875 -2.988281 2.125 -2.9375 C 2.0625 -2.875 1.984375 -2.859375 1.890625 -2.890625 C 1.878906 -2.890625 1.867188 -2.890625 1.859375 -2.890625 C 1.847656 -2.898438 1.835938 -2.910156 1.828125 -2.921875 C 1.734375 -3.046875 1.640625 -3.097656 1.546875 -3.078125 C 1.453125 -3.054688 1.351562 -3.015625 1.25 -2.953125 C 0.75 -2.660156 0.378906 -2.253906 0.140625 -1.734375 C 0.128906 -1.710938 0.117188 -1.6875 0.109375 -1.65625 C 0.109375 -1.632812 0.117188 -1.613281 0.140625 -1.59375 C 0.203125 -1.570312 0.265625 -1.578125 0.328125 -1.609375 C 0.398438 -1.640625 0.472656 -1.679688 0.546875 -1.734375 C 0.617188 -1.785156 0.675781 -1.828125 0.71875 -1.859375 C 0.726562 -1.867188 0.734375 -1.875 0.734375 -1.875 C 0.972656 -2.070312 1.203125 -2.273438 1.421875 -2.484375 C 1.523438 -2.585938 1.648438 -2.644531 1.796875 -2.65625 C 2.003906 -2.65625 2.09375 -2.5625 2.0625 -2.375 C 2.039062 -2.300781 2.019531 -2.226562 2 -2.15625 C 1.914062 -1.851562 1.910156 -1.675781 1.984375 -1.625 C 2.066406 -1.570312 2.1875 -1.570312 2.34375 -1.625 C 2.5 -1.675781 2.65625 -1.773438 2.8125 -1.921875 C 2.976562 -2.078125 3.113281 -2.21875 3.21875 -2.34375 C 3.332031 -2.46875 3.425781 -2.503906 3.5 -2.453125 Z M 1.890625 -4.828125 C 1.910156 -4.859375 1.941406 -4.878906 1.984375 -4.890625 C 2.023438 -4.910156 2.066406 -4.921875 2.109375 -4.921875 C 2.117188 -4.910156 2.128906 -4.90625 2.140625 -4.90625 C 2.148438 -4.90625 2.164062 -4.898438 2.1875 -4.890625 C 2.300781 -4.867188 2.359375 -4.835938 2.359375 -4.796875 C 2.367188 -4.753906 2.359375 -4.707031 2.328125 -4.65625 C 2.296875 -4.613281 2.257812 -4.566406 2.21875 -4.515625 C 2.101562 -4.398438 2 -4.273438 1.90625 -4.140625 C 1.820312 -4.015625 1.742188 -3.914062 1.671875 -3.84375 C 1.609375 -3.78125 1.554688 -3.769531 1.515625 -3.8125 C 1.484375 -3.84375 1.460938 -3.878906 1.453125 -3.921875 C 1.453125 -3.960938 1.460938 -4.003906 1.484375 -4.046875 C 1.503906 -4.171875 1.546875 -4.289062 1.609375 -4.40625 C 1.679688 -4.519531 1.753906 -4.628906 1.828125 -4.734375 C 1.835938 -4.765625 1.859375 -4.796875 1.890625 -4.828125 Z M 1.890625 -4.828125 "/></g></g></g><g fill="#000000" fill-opacity="1"><g transform="translate(53.51968, 22.675375)"><g><path d="M 3.015625 -2.328125 C 2.585938 -1.816406 2.164062 -1.441406 1.75 -1.203125 C 1.332031 -0.960938 0.890625 -0.882812 0.421875 -0.96875 C -0.046875 -1.050781 -0.238281 -1.367188 -0.15625 -1.921875 C -0.101562 -2.191406 -0.0234375 -2.460938 0.078125 -2.734375 C 0.328125 -3.347656 0.578125 -3.957031 0.828125 -4.5625 C 0.910156 -4.78125 1 -5 1.09375 -5.21875 C 1.113281 -5.269531 1.132812 -5.320312 1.15625 -5.375 C 1.195312 -5.445312 1.234375 -5.523438 1.265625 -5.609375 C 1.316406 -5.753906 1.257812 -5.832031 1.09375 -5.84375 C 1 -5.84375 0.910156 -5.84375 0.828125 -5.84375 C 0.785156 -5.84375 0.738281 -5.84375 0.6875 -5.84375 C 0.632812 -5.832031 0.582031 -5.820312 0.53125 -5.8125 C 0.445312 -5.8125 0.363281 -5.8125 0.28125 -5.8125 C 0.195312 -5.8125 0.117188 -5.832031 0.046875 -5.875 C 0.0351562 -5.875 0.0195312 -5.882812 0 -5.90625 C -0.0078125 -5.925781 -0.015625 -5.945312 -0.015625 -5.96875 C -0.00390625 -5.976562 0.00390625 -5.992188 0.015625 -6.015625 C 0.0351562 -6.035156 0.0546875 -6.046875 0.078125 -6.046875 C 0.148438 -6.078125 0.222656 -6.097656 0.296875 -6.109375 C 0.492188 -6.117188 0.691406 -6.128906 0.890625 -6.140625 C 0.972656 -6.140625 1.039062 -6.140625 1.09375 -6.140625 C 1.226562 -6.140625 1.328125 -6.144531 1.390625 -6.15625 C 1.453125 -6.164062 1.5 -6.195312 1.53125 -6.25 C 1.570312 -6.3125 1.617188 -6.398438 1.671875 -6.515625 C 1.703125 -6.578125 1.738281 -6.648438 1.78125 -6.734375 C 1.882812 -6.953125 1.988281 -7.179688 2.09375 -7.421875 C 2.144531 -7.523438 2.195312 -7.628906 2.25 -7.734375 C 2.289062 -7.828125 2.351562 -7.90625 2.4375 -7.96875 C 2.53125 -8.007812 2.609375 -8.003906 2.671875 -7.953125 C 2.691406 -7.941406 2.707031 -7.921875 2.71875 -7.890625 C 2.726562 -7.859375 2.734375 -7.832031 2.734375 -7.8125 C 2.734375 -7.6875 2.703125 -7.5625 2.640625 -7.4375 C 2.628906 -7.414062 2.613281 -7.382812 2.59375 -7.34375 C 2.550781 -7.226562 2.503906 -7.113281 2.453125 -7 C 2.359375 -6.78125 2.269531 -6.554688 2.1875 -6.328125 C 2.164062 -6.285156 2.164062 -6.25 2.1875 -6.21875 C 2.207031 -6.1875 2.238281 -6.171875 2.28125 -6.171875 C 2.507812 -6.160156 2.734375 -6.15625 2.953125 -6.15625 C 3.066406 -6.15625 3.179688 -6.15625 3.296875 -6.15625 C 3.648438 -6.144531 3.789062 -6.09375 3.71875 -6 C 3.664062 -5.945312 3.613281 -5.914062 3.5625 -5.90625 C 3.507812 -5.90625 3.453125 -5.910156 3.390625 -5.921875 C 3.359375 -5.921875 3.320312 -5.921875 3.28125 -5.921875 C 2.925781 -5.890625 2.570312 -5.875 2.21875 -5.875 C 2.050781 -5.875 1.941406 -5.800781 1.890625 -5.65625 C 1.828125 -5.507812 1.769531 -5.363281 1.71875 -5.21875 C 1.632812 -5.039062 1.554688 -4.863281 1.484375 -4.6875 C 1.410156 -4.507812 1.34375 -4.335938 1.28125 -4.171875 C 1.09375 -3.742188 0.914062 -3.3125 0.75 -2.875 C 0.632812 -2.59375 0.550781 -2.300781 0.5 -2 C 0.363281 -1.46875 0.566406 -1.265625 1.109375 -1.390625 C 1.648438 -1.515625 2.21875 -1.90625 2.8125 -2.5625 C 3.070312 -2.71875 3.140625 -2.640625 3.015625 -2.328125 Z M 3.015625 -2.328125 "/></g></g></g><g fill="#000000" fill-opacity="1"><g transform="translate(57.745278, 22.675375)"><g><path d="M 1.90625 -2.03125 C 1.738281 -1.832031 1.535156 -1.644531 1.296875 -1.46875 C 1.066406 -1.300781 0.800781 -1.1875 0.5 -1.125 C 0.207031 -1.0625 -0.015625 -1.082031 -0.171875 -1.1875 C -0.335938 -1.289062 -0.375 -1.519531 -0.28125 -1.875 C -0.144531 -2.238281 0.03125 -2.585938 0.25 -2.921875 C 0.300781 -2.992188 0.378906 -3.046875 0.484375 -3.078125 C 0.546875 -3.085938 0.601562 -3.070312 0.65625 -3.03125 C 0.71875 -3 0.738281 -2.953125 0.71875 -2.890625 C 0.675781 -2.773438 0.625 -2.65625 0.5625 -2.53125 C 0.507812 -2.414062 0.472656 -2.34375 0.453125 -2.3125 C 0.335938 -2.101562 0.257812 -1.890625 0.21875 -1.671875 C 0.21875 -1.535156 0.390625 -1.523438 0.734375 -1.640625 C 1.078125 -1.753906 1.410156 -1.960938 1.734375 -2.265625 C 2.054688 -2.566406 2.207031 -2.65625 2.1875 -2.53125 C 2.175781 -2.40625 2.082031 -2.238281 1.90625 -2.03125 Z M 1.078125 -3.65625 C 1.054688 -3.632812 1.019531 -3.613281 0.96875 -3.59375 C 0.925781 -3.582031 0.875 -3.570312 0.8125 -3.5625 C 0.757812 -3.550781 0.71875 -3.554688 0.6875 -3.578125 C 0.65625 -3.609375 0.65625 -3.664062 0.6875 -3.75 C 0.738281 -3.882812 0.789062 -4 0.84375 -4.09375 C 0.894531 -4.195312 0.96875 -4.3125 1.0625 -4.4375 C 1.125 -4.488281 1.1875 -4.515625 1.25 -4.515625 C 1.320312 -4.523438 1.378906 -4.507812 1.421875 -4.46875 C 1.460938 -4.4375 1.472656 -4.382812 1.453125 -4.3125 C 1.390625 -4.050781 1.265625 -3.832031 1.078125 -3.65625 Z M 1.078125 -3.65625 "/></g></g></g><g fill="#000000" fill-opacity="1"><g transform="translate(61.111715, 22.675375)"><g><path d="M 3.484375 -2.515625 C 3.492188 -2.515625 3.507812 -2.507812 3.53125 -2.5 C 3.550781 -2.488281 3.570312 -2.476562 3.59375 -2.46875 C 3.632812 -2.425781 3.640625 -2.378906 3.609375 -2.328125 C 3.554688 -2.273438 3.507812 -2.234375 3.46875 -2.203125 C 3.21875 -1.972656 2.941406 -1.78125 2.640625 -1.625 C 2.171875 -1.382812 1.648438 -1.257812 1.078125 -1.25 C 0.859375 -1.238281 0.640625 -1.273438 0.421875 -1.359375 C 0.00390625 -1.515625 -0.164062 -1.8125 -0.09375 -2.25 C 0 -2.65625 0.226562 -2.988281 0.59375 -3.25 C 0.957031 -3.519531 1.34375 -3.632812 1.75 -3.59375 C 1.832031 -3.582031 1.910156 -3.566406 1.984375 -3.546875 C 2.054688 -3.515625 2.109375 -3.46875 2.140625 -3.40625 C 2.179688 -3.351562 2.1875 -3.3125 2.15625 -3.28125 C 2.070312 -3.195312 1.984375 -3.175781 1.890625 -3.21875 C 1.742188 -3.28125 1.609375 -3.296875 1.484375 -3.265625 C 1.359375 -3.234375 1.234375 -3.164062 1.109375 -3.0625 C 0.984375 -2.96875 0.847656 -2.832031 0.703125 -2.65625 C 0.566406 -2.476562 0.476562 -2.300781 0.4375 -2.125 C 0.394531 -1.945312 0.476562 -1.800781 0.6875 -1.6875 C 0.90625 -1.582031 1.132812 -1.554688 1.375 -1.609375 C 1.957031 -1.734375 2.5 -1.957031 3 -2.28125 C 3.050781 -2.300781 3.09375 -2.328125 3.125 -2.359375 C 3.175781 -2.398438 3.226562 -2.429688 3.28125 -2.453125 C 3.34375 -2.484375 3.410156 -2.503906 3.484375 -2.515625 Z M 3.484375 -2.515625 "/></g></g></g><g fill="#000000" fill-opacity="1"><g transform="translate(65.815166, 22.675375)"><g><path d="M 3.5 -2.453125 C 3.582031 -2.410156 3.585938 -2.304688 3.515625 -2.140625 C 3.421875 -2.015625 3.320312 -1.898438 3.21875 -1.796875 C 3.113281 -1.691406 3 -1.597656 2.875 -1.515625 C 2.863281 -1.515625 2.859375 -1.507812 2.859375 -1.5 C 2.773438 -1.445312 2.6875 -1.398438 2.59375 -1.359375 C 1.820312 -1.078125 1.429688 -1.238281 1.421875 -1.84375 C 1.109375 -1.570312 0.894531 -1.40625 0.78125 -1.34375 C 0.53125 -1.195312 0.257812 -1.128906 -0.03125 -1.140625 C -0.25 -1.148438 -0.398438 -1.21875 -0.484375 -1.34375 C -0.566406 -1.46875 -0.5625 -1.628906 -0.46875 -1.828125 C -0.320312 -2.160156 -0.117188 -2.453125 0.140625 -2.703125 C 0.441406 -2.984375 0.78125 -3.210938 1.15625 -3.390625 C 1.351562 -3.484375 1.5625 -3.519531 1.78125 -3.5 C 2 -3.488281 2.132812 -3.363281 2.1875 -3.125 C 2.207031 -3.050781 2.1875 -2.988281 2.125 -2.9375 C 2.0625 -2.875 1.984375 -2.859375 1.890625 -2.890625 C 1.878906 -2.890625 1.867188 -2.890625 1.859375 -2.890625 C 1.847656 -2.898438 1.835938 -2.910156 1.828125 -2.921875 C 1.734375 -3.046875 1.640625 -3.097656 1.546875 -3.078125 C 1.453125 -3.054688 1.351562 -3.015625 1.25 -2.953125 C 0.75 -2.660156 0.378906 -2.253906 0.140625 -1.734375 C 0.128906 -1.710938 0.117188 -1.6875 0.109375 -1.65625 C 0.109375 -1.632812 0.117188 -1.613281 0.140625 -1.59375 C 0.203125 -1.570312 0.265625 -1.578125 0.328125 -1.609375 C 0.398438 -1.640625 0.472656 -1.679688 0.546875 -1.734375 C 0.617188 -1.785156 0.675781 -1.828125 0.71875 -1.859375 C 0.726562 -1.867188 0.734375 -1.875 0.734375 -1.875 C 0.972656 -2.070312 1.203125 -2.273438 1.421875 -2.484375 C 1.523438 -2.585938 1.648438 -2.644531 1.796875 -2.65625 C 2.003906 -2.65625 2.09375 -2.5625 2.0625 -2.375 C 2.039062 -2.300781 2.019531 -2.226562 2 -2.15625 C 1.914062 -1.851562 1.910156 -1.675781 1.984375 -1.625 C 2.066406 -1.570312 2.1875 -1.570312 2.34375 -1.625 C 2.5 -1.675781 2.65625 -1.773438 2.8125 -1.921875 C 2.976562 -2.078125 3.113281 -2.21875 3.21875 -2.34375 C 3.332031 -2.46875 3.425781 -2.503906 3.5 -2.453125 Z M 3.5 -2.453125 "/></g></g></g><g fill="#000000" fill-opacity="1"><g transform="translate(70.499311, 22.675375)"><g/></g></g><g fill="#000000" fill-opacity="1"><g transform="translate(75.632337, 22.675375)"><g><path d="M 21.203125 -11.65625 C 21.171875 -11.59375 21.144531 -11.535156 21.125 -11.484375 C 20.90625 -10.890625 20.664062 -10.3125 20.40625 -9.75 C 19.050781 -6.945312 17.601562 -4.238281 16.0625 -1.625 C 15.5625 -0.78125 15.046875 0.046875 14.515625 0.859375 C 13.992188 1.671875 13.46875 2.476562 12.9375 3.28125 C 12.8125 3.476562 12.6875 3.671875 12.5625 3.859375 C 12.550781 3.878906 12.539062 3.890625 12.53125 3.890625 C 12.507812 3.953125 12.476562 4 12.4375 4.03125 C 12.394531 4.070312 12.34375 4.09375 12.28125 4.09375 C 12.25 4.09375 12.21875 4.082031 12.1875 4.0625 C 12.15625 4.050781 12.128906 4.035156 12.109375 4.015625 C 12.097656 3.992188 12.085938 3.960938 12.078125 3.921875 C 12.066406 3.878906 12.070312 3.84375 12.09375 3.8125 C 12.175781 3.632812 12.269531 3.457031 12.375 3.28125 C 12.613281 2.894531 12.851562 2.507812 13.09375 2.125 C 13.550781 1.394531 14 0.664062 14.4375 -0.0625 C 15.40625 -1.675781 16.332031 -3.328125 17.21875 -5.015625 C 18.101562 -6.710938 18.96875 -8.425781 19.8125 -10.15625 C 20.15625 -10.820312 20.4375 -11.535156 20.65625 -12.296875 C 20.695312 -12.421875 20.726562 -12.550781 20.75 -12.6875 C 20.78125 -12.832031 20.796875 -12.984375 20.796875 -13.140625 C 20.765625 -13.460938 20.625 -13.601562 20.375 -13.5625 C 20.144531 -13.519531 19.929688 -13.453125 19.734375 -13.359375 C 19.265625 -13.128906 18.800781 -12.875 18.34375 -12.59375 C 15.863281 -11.09375 13.609375 -9.226562 11.578125 -7 C 11.546875 -6.96875 11.515625 -6.9375 11.484375 -6.90625 C 10.785156 -6.132812 10.085938 -5.359375 9.390625 -4.578125 C 8.703125 -3.804688 8.035156 -3.015625 7.390625 -2.203125 C 7.253906 -2.023438 7.109375 -1.863281 6.953125 -1.71875 C 6.796875 -1.550781 6.609375 -1.488281 6.390625 -1.53125 C 6.296875 -1.539062 6.21875 -1.582031 6.15625 -1.65625 C 6.101562 -1.738281 6.082031 -1.832031 6.09375 -1.9375 C 6.132812 -2.226562 6.195312 -2.507812 6.28125 -2.78125 C 6.539062 -3.632812 6.820312 -4.476562 7.125 -5.3125 C 7.164062 -5.445312 7.203125 -5.570312 7.234375 -5.6875 C 7.304688 -6 7.414062 -6.285156 7.5625 -6.546875 C 7.5625 -6.554688 7.554688 -6.5625 7.546875 -6.5625 C 7.515625 -6.582031 7.476562 -6.597656 7.4375 -6.609375 C 7.40625 -6.617188 7.375 -6.609375 7.34375 -6.578125 C 7.207031 -6.429688 7.082031 -6.28125 6.96875 -6.125 C 5.988281 -4.800781 5.019531 -3.460938 4.0625 -2.109375 C 3.101562 -0.765625 2.164062 0.601562 1.25 2 C 1.175781 2.132812 1.085938 2.242188 0.984375 2.328125 C 0.890625 2.410156 0.765625 2.441406 0.609375 2.421875 C 0.535156 2.398438 0.476562 2.351562 0.4375 2.28125 C 0.40625 2.21875 0.398438 2.15625 0.421875 2.09375 C 0.503906 1.894531 0.597656 1.710938 0.703125 1.546875 C 0.984375 1.054688 1.265625 0.566406 1.546875 0.078125 C 2.097656 -0.890625 2.648438 -1.863281 3.203125 -2.84375 C 4.046875 -4.34375 4.800781 -5.921875 5.46875 -7.578125 C 5.726562 -8.210938 5.941406 -8.882812 6.109375 -9.59375 C 6.203125 -9.96875 6.238281 -10.359375 6.21875 -10.765625 C 6.175781 -11.410156 5.960938 -11.875 5.578125 -12.15625 C 5.191406 -12.4375 4.679688 -12.566406 4.046875 -12.546875 C 3.410156 -12.535156 2.703125 -12.40625 1.921875 -12.15625 C 1.148438 -11.914062 0.363281 -11.59375 -0.4375 -11.1875 C -1.25 -10.789062 -2.03125 -10.347656 -2.78125 -9.859375 C -3.539062 -9.367188 -4.210938 -8.875 -4.796875 -8.375 C -5.390625 -7.882812 -5.847656 -7.421875 -6.171875 -6.984375 C -6.515625 -6.492188 -6.8125 -5.960938 -7.0625 -5.390625 C -7.175781 -5.109375 -7.242188 -4.804688 -7.265625 -4.484375 C -7.273438 -4.421875 -7.304688 -4.367188 -7.359375 -4.328125 C -7.421875 -4.296875 -7.488281 -4.289062 -7.5625 -4.3125 C -7.675781 -4.34375 -7.742188 -4.429688 -7.765625 -4.578125 C -7.785156 -4.765625 -7.773438 -4.929688 -7.734375 -5.078125 C -7.617188 -5.472656 -7.472656 -5.84375 -7.296875 -6.1875 C -6.972656 -6.800781 -6.476562 -7.421875 -5.8125 -8.046875 C -5.15625 -8.679688 -4.382812 -9.289062 -3.5 -9.875 C -2.613281 -10.457031 -1.691406 -10.972656 -0.734375 -11.421875 C 0.222656 -11.878906 1.160156 -12.234375 2.078125 -12.484375 C 2.992188 -12.742188 3.816406 -12.859375 4.546875 -12.828125 C 5.285156 -12.804688 5.867188 -12.601562 6.296875 -12.21875 C 6.722656 -11.84375 6.929688 -11.25 6.921875 -10.4375 C 6.890625 -9.914062 6.804688 -9.414062 6.671875 -8.9375 C 6.460938 -8.25 6.222656 -7.578125 5.953125 -6.921875 C 5.679688 -6.273438 5.394531 -5.640625 5.09375 -5.015625 C 5 -4.828125 4.976562 -4.734375 5.03125 -4.734375 C 5.09375 -4.742188 5.175781 -4.816406 5.28125 -4.953125 C 5.664062 -5.460938 6.046875 -5.96875 6.421875 -6.46875 C 6.679688 -6.800781 6.945312 -7.125 7.21875 -7.4375 C 7.257812 -7.488281 7.296875 -7.535156 7.328125 -7.578125 C 7.484375 -7.765625 7.671875 -7.890625 7.890625 -7.953125 C 8.054688 -7.984375 8.191406 -7.941406 8.296875 -7.828125 C 8.410156 -7.722656 8.453125 -7.5625 8.421875 -7.34375 C 8.410156 -7.320312 8.40625 -7.300781 8.40625 -7.28125 C 8.34375 -7 8.273438 -6.722656 8.203125 -6.453125 C 7.992188 -5.796875 7.78125 -5.148438 7.5625 -4.515625 C 7.457031 -4.179688 7.351562 -3.84375 7.25 -3.5 C 7.21875 -3.445312 7.179688 -3.359375 7.140625 -3.234375 C 7.097656 -3.117188 7.054688 -3.003906 7.015625 -2.890625 C 6.984375 -2.785156 6.957031 -2.707031 6.9375 -2.65625 C 6.96875 -2.675781 7.226562 -2.96875 7.71875 -3.53125 C 8.394531 -4.300781 9.191406 -5.203125 10.109375 -6.234375 C 11.035156 -7.273438 11.757812 -8.070312 12.28125 -8.625 C 13.25 -9.601562 14.269531 -10.488281 15.34375 -11.28125 C 16.414062 -12.082031 17.53125 -12.804688 18.6875 -13.453125 C 18.96875 -13.609375 19.257812 -13.742188 19.5625 -13.859375 C 19.625 -13.878906 19.6875 -13.90625 19.75 -13.9375 C 20.03125 -14.050781 20.332031 -14.09375 20.65625 -14.0625 C 21.257812 -14 21.535156 -13.613281 21.484375 -12.90625 C 21.453125 -12.457031 21.359375 -12.039062 21.203125 -11.65625 Z M 7.53125 -6.59375 C 7.539062 -6.582031 7.550781 -6.570312 7.5625 -6.5625 C 7.5625 -6.5625 7.5625 -6.554688 7.5625 -6.546875 C 7.570312 -6.546875 7.578125 -6.550781 7.578125 -6.5625 C 7.554688 -6.570312 7.539062 -6.582031 7.53125 -6.59375 Z M 7.53125 -6.59375 "/></g></g></g><g fill="#000000" fill-opacity="1"><g transform="translate(95.308355, 22.675375)"><g><path d="M 3.015625 -2.328125 C 2.585938 -1.816406 2.164062 -1.441406 1.75 -1.203125 C 1.332031 -0.960938 0.890625 -0.882812 0.421875 -0.96875 C -0.046875 -1.050781 -0.238281 -1.367188 -0.15625 -1.921875 C -0.101562 -2.191406 -0.0234375 -2.460938 0.078125 -2.734375 C 0.328125 -3.347656 0.578125 -3.957031 0.828125 -4.5625 C 0.910156 -4.78125 1 -5 1.09375 -5.21875 C 1.113281 -5.269531 1.132812 -5.320312 1.15625 -5.375 C 1.195312 -5.445312 1.234375 -5.523438 1.265625 -5.609375 C 1.316406 -5.753906 1.257812 -5.832031 1.09375 -5.84375 C 1 -5.84375 0.910156 -5.84375 0.828125 -5.84375 C 0.785156 -5.84375 0.738281 -5.84375 0.6875 -5.84375 C 0.632812 -5.832031 0.582031 -5.820312 0.53125 -5.8125 C 0.445312 -5.8125 0.363281 -5.8125 0.28125 -5.8125 C 0.195312 -5.8125 0.117188 -5.832031 0.046875 -5.875 C 0.0351562 -5.875 0.0195312 -5.882812 0 -5.90625 C -0.0078125 -5.925781 -0.015625 -5.945312 -0.015625 -5.96875 C -0.00390625 -5.976562 0.00390625 -5.992188 0.015625 -6.015625 C 0.0351562 -6.035156 0.0546875 -6.046875 0.078125 -6.046875 C 0.148438 -6.078125 0.222656 -6.097656 0.296875 -6.109375 C 0.492188 -6.117188 0.691406 -6.128906 0.890625 -6.140625 C 0.972656 -6.140625 1.039062 -6.140625 1.09375 -6.140625 C 1.226562 -6.140625 1.328125 -6.144531 1.390625 -6.15625 C 1.453125 -6.164062 1.5 -6.195312 1.53125 -6.25 C 1.570312 -6.3125 1.617188 -6.398438 1.671875 -6.515625 C 1.703125 -6.578125 1.738281 -6.648438 1.78125 -6.734375 C 1.882812 -6.953125 1.988281 -7.179688 2.09375 -7.421875 C 2.144531 -7.523438 2.195312 -7.628906 2.25 -7.734375 C 2.289062 -7.828125 2.351562 -7.90625 2.4375 -7.96875 C 2.53125 -8.007812 2.609375 -8.003906 2.671875 -7.953125 C 2.691406 -7.941406 2.707031 -7.921875 2.71875 -7.890625 C 2.726562 -7.859375 2.734375 -7.832031 2.734375 -7.8125 C 2.734375 -7.6875 2.703125 -7.5625 2.640625 -7.4375 C 2.628906 -7.414062 2.613281 -7.382812 2.59375 -7.34375 C 2.550781 -7.226562 2.503906 -7.113281 2.453125 -7 C 2.359375 -6.78125 2.269531 -6.554688 2.1875 -6.328125 C 2.164062 -6.285156 2.164062 -6.25 2.1875 -6.21875 C 2.207031 -6.1875 2.238281 -6.171875 2.28125 -6.171875 C 2.507812 -6.160156 2.734375 -6.15625 2.953125 -6.15625 C 3.066406 -6.15625 3.179688 -6.15625 3.296875 -6.15625 C 3.648438 -6.144531 3.789062 -6.09375 3.71875 -6 C 3.664062 -5.945312 3.613281 -5.914062 3.5625 -5.90625 C 3.507812 -5.90625 3.453125 -5.910156 3.390625 -5.921875 C 3.359375 -5.921875 3.320312 -5.921875 3.28125 -5.921875 C 2.925781 -5.890625 2.570312 -5.875 2.21875 -5.875 C 2.050781 -5.875 1.941406 -5.800781 1.890625 -5.65625 C 1.828125 -5.507812 1.769531 -5.363281 1.71875 -5.21875 C 1.632812 -5.039062 1.554688 -4.863281 1.484375 -4.6875 C 1.410156 -4.507812 1.34375 -4.335938 1.28125 -4.171875 C 1.09375 -3.742188 0.914062 -3.3125 0.75 -2.875 C 0.632812 -2.59375 0.550781 -2.300781 0.5 -2 C 0.363281 -1.46875 0.566406 -1.265625 1.109375 -1.390625 C 1.648438 -1.515625 2.21875 -1.90625 2.8125 -2.5625 C 3.070312 -2.71875 3.140625 -2.640625 3.015625 -2.328125 Z M 3.015625 -2.328125 "/></g></g></g><g fill="#000000" fill-opacity="1"><g transform="translate(99.533953, 22.675375)"><g/></g></g><g fill="#000000" fill-opacity="1"><g transform="translate(104.666979, 22.675375)"><g><path d="M 2.34375 -2.09375 L 1.953125 -2.109375 C 1.554688 -2.117188 1.125 -2.148438 0.65625 -2.203125 C 0.644531 -2.203125 0.640625 -2.207031 0.640625 -2.21875 C 0.628906 -2.21875 0.617188 -2.222656 0.609375 -2.234375 C 0.597656 -2.253906 0.597656 -2.28125 0.609375 -2.3125 C 0.640625 -2.457031 0.691406 -2.535156 0.765625 -2.546875 C 1.140625 -2.597656 1.507812 -2.625 1.875 -2.625 L 2.109375 -2.640625 L 3.59375 -2.640625 C 3.675781 -2.640625 3.753906 -2.632812 3.828125 -2.625 C 3.890625 -2.601562 3.898438 -2.519531 3.859375 -2.375 C 3.816406 -2.226562 3.765625 -2.144531 3.703125 -2.125 C 3.671875 -2.125 3.640625 -2.125 3.609375 -2.125 L 3.375 -2.125 C 3.050781 -2.101562 2.707031 -2.09375 2.34375 -2.09375 Z M 2.34375 -2.09375 "/></g></g></g></svg>